HIERARCHY
ROOT hips
{
  OFFSET 0 10.074487846421558 1.314567655973056
  CHANNELS 6 Xposition Yposition Zposition Yrotation Xrotation Zrotation
  JOINT spine
  {
    OFFSET -7.042773748992335e-31 0.5690686926897363 0
    CHANNELS 3 Yrotation Xrotation Zrotation
    JOINT chest
    {
      OFFSET 0 1.2435964857087873 0
      CHANNELS 3 Yrotation Xrotation Zrotation
      JOINT upperChest
      {
        OFFSET 0 1.194994586872362 0
        CHANNELS 3 Yrotation Xrotation Zrotation
        JOINT neck
        {
          OFFSET 0 1.515103653293861 0
          CHANNELS 3 Yrotation Xrotation Zrotation
          JOINT head
          {
            OFFSET 0 0.8111851616465653 0
            CHANNELS 3 Yrotation Xrotation Zrotation
            JOINT leftEye
            {
              OFFSET 0.27141371691966987 0.7490044407698551 0.18219031050045686
              CHANNELS 3 Yrotation Xrotation Zrotation
              End Site
              {
                OFFSET 0.27141371691966987 0.7490044407698551 0.18219031050045686
              }
            }
            JOINT rightEye
            {
              OFFSET -0.2714136877644943 0.7490044019380786 0.18219040411850668
              CHANNELS 3 Yrotation Xrotation Zrotation
              End Site
              {
                OFFSET -0.2714136877644943 0.7490044019380786 0.18219040411850668
              }
            }
          }
        }
        JOINT leftShoulder
        {
          OFFSET 0.4137993136083964 1.1593397335613034 0
          CHANNELS 3 Yrotation Xrotation Zrotation
          JOINT leftUpperArm
          {
            OFFSET 1.0096991868951026 0 0
            CHANNELS 3 Yrotation Xrotation Zrotation
            JOINT leftLowerArm
            {
              OFFSET 2.418380967671622 0 0
              CHANNELS 3 Yrotation Xrotation Zrotation
              JOINT leftHand
              {
                OFFSET 2.361538296260114 0 0
                CHANNELS 3 Yrotation Xrotation Zrotation
                JOINT leftIndexProximal
                {
                  OFFSET 0.7243699271447109 0.08118285989887508 0.2022042461579805
                  CHANNELS 3 Yrotation Xrotation Zrotation
                  JOINT leftIndexIntermediate
                  {
                    OFFSET 0.36553107045252053 -0.010567764853200323 -0.014102670024158437
                    CHANNELS 3 Yrotation Xrotation Zrotation
                    JOINT leftIndexDistal
                    {
                      OFFSET 0.22505120770060527 -0.007821041598631284 -0.007511611613336286
                      CHANNELS 3 Yrotation Xrotation Zrotation
                      End Site
                      {
                        OFFSET 0.22505120770060527 -0.007821041598631284 -0.007511611613336286
                      }
                    }
                  }
                }
                JOINT leftLittleProximal
                {
                  OFFSET 0.6721063881632002 0.08118279568569564 -0.3209324945517917
                  CHANNELS 3 Yrotation Xrotation Zrotation
                  JOINT leftLittleIntermediate
                  {
                    OFFSET 0.34587329423120616 5.3042709780015684e-8 -5.929537746918179e-8
                    CHANNELS 3 Yrotation Xrotation Zrotation
                    JOINT leftLittleDistal
                    {
                      OFFSET 0.1992782500022232 0.0030983716482184676 0.0038310952896712935
                      CHANNELS 3 Yrotation Xrotation Zrotation
                      End Site
                      {
                        OFFSET 0.1992782500022232 0.0030983716482184676 0.0038310952896712935
                      }
                    }
                  }
                }
                JOINT leftMiddleProximal
                {
                  OFFSET 0.7301229696860206 0.08118412848995638 0.022516891543707507
                  CHANNELS 3 Yrotation Xrotation Zrotation
                  JOINT leftMiddleIntermediate
                  {
                    OFFSET 0.4076277831942017 -0.000001240188283180288 -1.6203245635504349e-7
                    CHANNELS 3 Yrotation Xrotation Zrotation
                    JOINT leftMiddleDistal
                    {
                      OFFSET 0.2514739255593972 0.0000013850839168938478 -1.8644847207816007e-8
                      CHANNELS 3 Yrotation Xrotation Zrotation
                      End Site
                      {
                        OFFSET 0.2514739255593972 0.0000013850839168938478 -1.8644847207816007e-8
                      }
                    }
                  }
                }
                JOINT leftRingProximal
                {
                  OFFSET 0.7218060861525873 0.08118280646416753 -0.1494689818508163
                  CHANNELS 3 Yrotation Xrotation Zrotation
                  JOINT leftRingIntermediate
                  {
                    OFFSET 0.3781267508900358 0.000001373626195677602 -1.4143108284514483e-7
                    CHANNELS 3 Yrotation Xrotation Zrotation
                    JOINT leftRingDistal
                    {
                      OFFSET 0.21814333268795483 -0.0027137626495670197 -0.004991775417842292
                      CHANNELS 3 Yrotation Xrotation Zrotation
                      End Site
                      {
                        OFFSET 0.21814333268795483 -0.0027137626495670197 -0.004991775417842292
                      }
                    }
                  }
                }
                JOINT leftThumbProximal
                {
                  OFFSET 0.10743676110519984 -0.16423092885053192 -0.07708859146227388
                  CHANNELS 3 Yrotation Xrotation Zrotation
                  JOINT leftThumbIntermediate
                  {
                    OFFSET 0.40350402100066307 -0.01735099334274981 0.315629965828783
                    CHANNELS 3 Yrotation Xrotation Zrotation
                    JOINT leftThumbDistal
                    {
                      OFFSET 0.2320014489535681 -0.01842351809041043 0.21271298411519196
                      CHANNELS 3 Yrotation Xrotation Zrotation
                      End Site
                      {
                        OFFSET 0.2320014489535681 -0.01842351809041043 0.21271298411519196
                      }
                    }
                  }
                }
              }
            }
          }
        }
        JOINT rightShoulder
        {
          OFFSET -0.41379931360839656 1.1593397335613034 0
          CHANNELS 3 Yrotation Xrotation Zrotation
          JOINT rightUpperArm
          {
            OFFSET -1.0096991868951024 0 0
            CHANNELS 3 Yrotation Xrotation Zrotation
            JOINT rightLowerArm
            {
              OFFSET -2.4183809676716232 0 0
              CHANNELS 3 Yrotation Xrotation Zrotation
              JOINT rightHand
              {
                OFFSET -2.3615382962601132 0 0
                CHANNELS 3 Yrotation Xrotation Zrotation
                JOINT rightIndexProximal
                {
                  OFFSET -0.7243699271447109 0.08118285989887508 0.2022042461579805
                  CHANNELS 3 Yrotation Xrotation Zrotation
                  JOINT rightIndexIntermediate
                  {
                    OFFSET -0.36553107045252053 -0.010567764853200323 -0.014102670024158437
                    CHANNELS 3 Yrotation Xrotation Zrotation
                    JOINT rightIndexDistal
                    {
                      OFFSET -0.22505120770060527 -0.007821041598631284 -0.007511611613336286
                      CHANNELS 3 Yrotation Xrotation Zrotation
                      End Site
                      {
                        OFFSET -0.22505120770060527 -0.007821041598631284 -0.007511611613336286
                      }
                    }
                  }
                }
                JOINT rightLittleProximal
                {
                  OFFSET -0.6721063881632002 0.08118279568569564 -0.3209324945517917
                  CHANNELS 3 Yrotation Xrotation Zrotation
                  JOINT rightLittleIntermediate
                  {
                    OFFSET -0.34587329423120616 5.3042709780015684e-8 -5.929537746918179e-8
                    CHANNELS 3 Yrotation Xrotation Zrotation
                    JOINT rightLittleDistal
                    {
                      OFFSET -0.1992782500022232 0.0030983716482184676 0.0038310952896712935
                      CHANNELS 3 Yrotation Xrotation Zrotation
                      End Site
                      {
                        OFFSET -0.1992782500022232 0.0030983716482184676 0.0038310952896712935
                      }
                    }
                  }
                }
                JOINT rightMiddleProximal
                {
                  OFFSET -0.7301229696860206 0.08118412848995638 0.022516891543707507
                  CHANNELS 3 Yrotation Xrotation Zrotation
                  JOINT rightMiddleIntermediate
                  {
                    OFFSET -0.4076277831942017 -0.000001240188283180288 -1.6203245635504349e-7
                    CHANNELS 3 Yrotation Xrotation Zrotation
                    JOINT rightMiddleDistal
                    {
                      OFFSET -0.2514739255593972 0.0000013850839168938478 -1.8644847207816007e-8
                      CHANNELS 3 Yrotation Xrotation Zrotation
                      End Site
                      {
                        OFFSET -0.2514739255593972 0.0000013850839168938478 -1.8644847207816007e-8
                      }
                    }
                  }
                }
                JOINT rightRingProximal
                {
                  OFFSET -0.7218060861525873 0.08118280646416753 -0.1494689818508163
                  CHANNELS 3 Yrotation Xrotation Zrotation
                  JOINT rightRingIntermediate
                  {
                    OFFSET -0.3781267508900358 0.000001373626195677602 -1.4143108284514483e-7
                    CHANNELS 3 Yrotation Xrotation Zrotation
                    JOINT rightRingDistal
                    {
                      OFFSET -0.21814333268795483 -0.0027137626495670197 -0.004991775417842292
                      CHANNELS 3 Yrotation Xrotation Zrotation
                      End Site
                      {
                        OFFSET -0.21814333268795483 -0.0027137626495670197 -0.004991775417842292
                      }
                    }
                  }
                }
                JOINT rightThumbProximal
                {
                  OFFSET -0.10743676110519984 -0.16423092885053192 -0.07708859146227388
                  CHANNELS 3 Yrotation Xrotation Zrotation
                  JOINT rightThumbIntermediate
                  {
                    OFFSET -0.40350402100066307 -0.01735099334274981 0.315629965828783
                    CHANNELS 3 Yrotation Xrotation Zrotation
                    JOINT rightThumbDistal
                    {
                      OFFSET -0.2320014489535681 -0.01842351809041043 0.21271298411519196
                      CHANNELS 3 Yrotation Xrotation Zrotation
                      End Site
                      {
                        OFFSET -0.2320014489535681 -0.01842351809041043 0.21271298411519196
                      }
                    }
                  }
                }
              }
            }
          }
        }
      }
    }
  }
  JOINT leftUpperLeg
  {
    OFFSET 0.8487163290887698 -0.43932186100277326 0
    CHANNELS 3 Yrotation Xrotation Zrotation
    JOINT leftLowerLeg
    {
      OFFSET 0 -3.882816707004296 0
      CHANNELS 3 Yrotation Xrotation Zrotation
      JOINT leftFoot
      {
        OFFSET 0 -4.570431027442807 0.004629272230691511
        CHANNELS 3 Yrotation Xrotation Zrotation
        JOINT leftToes
        {
          OFFSET 0 -0.698875637876343 1.214565366696912
          CHANNELS 3 Yrotation Xrotation Zrotation
          End Site
          {
            OFFSET 0 -0.698875637876343 1.214565366696912
          }
        }
      }
    }
  }
  JOINT rightUpperLeg
  {
    OFFSET -0.8487163290887698 -0.43932186100277326 0
    CHANNELS 3 Yrotation Xrotation Zrotation
    JOINT rightLowerLeg
    {
      OFFSET 0 -3.882816707004296 0
      CHANNELS 3 Yrotation Xrotation Zrotation
      JOINT rightFoot
      {
        OFFSET 0 -4.570431027442807 0.004629272230691511
        CHANNELS 3 Yrotation Xrotation Zrotation
        JOINT rightToes
        {
          OFFSET 0 -0.698875637876343 1.214565366696912
          CHANNELS 3 Yrotation Xrotation Zrotation
          End Site
          {
            OFFSET 0 -0.698875637876343 1.214565366696912
          }
        }
      }
    }
  }
}
MOTION
Frames: 4
Frame Time: 0.03333333333333333
0.6591060161590576 -5.309392135667164 5.259739875793457 -20.88039685428682 20.333097594904263 3.6300876967043814 -0.2671125674313817 19.09398860251321 1.9585997313908807 -0.33945632979322077 7.614608483876415 0.9856232329144826 0 0 0 -0.7312043694387038 6.871100692083106 -0.14059653026477573 -16.237044209034604 36.4289087863738 8.904737285501495 0 0 0 0 0 0 -10.843173315500307 0.12640968187372684 -16.558134157295772 -25.986089813950986 11.06140672307817 -64.51017711502405 -81.63313149279205 0.6324688849652962 0.7322956056504034 -35.04388089578283 35.20825672199965 -28.4675893671519 -2.5987071976097815 -0.37718954269458405 -5.110612609894856 2.6348135910941335 0.7289946062730451 -30.928359615760236 0.9298747733905897 0.08505639031533552 -10.453827837078519 14.082329954964244 1.6490582743589992 -7.327871365378919 1.9701171856692992 0.3937381582703712 -22.604101024427372 1.9663764596099589 0.392192124597757 -22.558984459223 -0.7146815718786157 -0.6481826631415728 -11.438440031908316 2.2500666971221097 0.5202800014731436 -26.037182881226965 0.8265852566538124 0.06708089731915988 -9.281684131638075 4.9381140672897805 0.5383532932502014 -13.428787905905626 2.0536022224859085 0.4293903715778621 -23.618495388575496 1.701901124600711 0.29078801451552316 -19.393188370090797 -7.356296453927991 -2.318575264684488 5.671885870569225 12.480964532691702 5.729973791507682 3.3787127970460005 -8.227891767085513 -10.2814014350861 14.425102796877189 13.793104869810954 0.13090942718096593 14.567854718494004 19.659857370460628 17.548896854414437 56.916363087881805 83.28409868143584 0.6535796078740088 -0.7350378512664028 37.606915649555084 43.1531104033725 32.219755806383134 -4.359766789218314 0.055839870218524615 0.12822226883011784 -1.4942945745003202 0.2957033871795327 22.38603281148002 -2.0157424520021943 0.5573554814750177 30.910309170178063 -3.6884406519339556 -0.09050769475584715 -5.088285704018795 -1.0354295394691142 0.13910766464349844 15.302278391541124 -0.9640311772733271 0.12029121891778577 14.224141665632617 -3.2887900099549285 0.07194971187455111 1.3595393741073445 -1.0657877282281123 0.14752532550742337 15.762449768368855 -0.6346309240585057 0.051671321890169555 9.308942124819199 -3.5367608450868193 0.016354943218076123 -1.4620409033928288 -1.5698700476873513 0.32776991951024126 23.58466558892526 -0.06629711832636039 0.0005641183260995427 0.9682718453709681 -2.154705364749671 -1.7926327021293633 -22.12572891095044 -15.600189442672892 7.527681838096598 -6.383328828387509 1.9441897752063146 -8.408536259820568 -15.078234423375477 -6.4187184278100125 -52.55247635140387 3.356757454558559 -177.85111430618454 53.60538067023258 -177.87554000229943 -6.566594666529695 41.511032598970495 -18.389290724836798 -0.000008531097203772716 1.0948520376300312 -0.000004349919847168433 24.52637855432283 -42.846708456423706 -26.06673040520963 -167.86483248903983 56.53923924665652 -169.14721457392318 -10.128413103903055 31.94799002250343 -21.852797337436733 -5.437363524061213e-7 2.1800801362952655 6.058188960772638e-7
0.6985278725624084 -5.274840038346607 5.381567001342773 -21.917603597875452 20.138370926886864 3.529146079692263 -0.8590189922293474 19.406303498054285 1.4669537990186459 -0.6355566623444867 7.524143199388548 0.8530427172700972 0 0 0 -0.5754880024764774 6.259146021033679 0.3711480868650951 -13.826583941757875 34.07372251115307 15.80153456474531 0 0 0 0 0 0 -11.377017268755536 0.09620408008747461 -16.52979460735728 -24.888660972368736 10.556736403690483 -64.96539984522042 -80.12096045882856 0.6131811587374019 0.7291898282500474 -36.53174144985263 34.56465422187751 -27.922316011455816 -2.541551186901954 -0.42125723313010377 -5.628111419229641 2.6352098708695584 0.7292305870711868 -30.933251056866677 0.9253946023887935 0.08422958967800338 -10.402807372163979 14.046856015043367 1.5553625566586475 -6.8802062507160695 1.9325940970493867 0.3782972580331588 -22.15064464172192 1.9302598861213571 0.3773553918207632 -22.122639323563387 -0.6919001700938099 -0.6593905059369431 -11.651647783797943 2.2500471538619373 0.5202607374110537 -26.03707290336144 0.8265762396021022 0.06707345347508044 -9.281688344618253 4.919742484109385 0.5282138117487555 -13.203029616687044 2.053487338078401 0.42931374324162164 -23.617004295187552 1.701901978008736 0.2908116803585936 -19.393194336140603 -7.357233021907995 -2.319027708303613 5.673327258328561 12.481736976417118 5.730388235106057 3.378592544477645 -8.2280393835836 -10.281388419490597 14.42509436908495 13.870871554871067 0.08726537204027109 15.003671875574279 18.938197433909487 16.40361832504677 57.19691125641581 82.09338888699705 0.6383150326026928 -0.7330917871175202 40.179385454492845 43.91853812765971 35.66303473676229 -4.131706890480186 0.055195010678718126 0.14131202186896383 -1.51064503869559 0.3024870580773419 22.644131635229567 -2.0157181333593313 0.5573643931591008 30.910234198032793 -4.064543446339222 -0.0938861681599331 -4.293980248333481 -1.0572951286238137 0.1451593509334704 15.633513385324942 -0.9853573635122709 0.12574801903615312 14.54558194368134 -3.170233719028461 0.07410293742956363 1.7335470630350647 -1.0832263582687962 0.1525184243517555 16.027095025888705 -0.6345505141520218 0.05164167992434168 9.308022208798125 -3.585283671776866 0.030558567950214662 -0.8225448189201476 -1.56962162143639 0.32766060801503194 23.580672437965703 -0.10080736111384153 0.0012977233317430664 1.4722642962690606 -2.0477590375828916 -1.695005952066691 -21.54335804936776 -15.600245094153761 7.526412437487689 -6.383383958485993 1.9441720928458777 -8.408548342534235 -15.078234423375477 -5.924959863559705 -51.3797465782787 2.094787306909333 -173.91864905628682 54.211649527967715 -174.7098659350081 -6.311488230877628 40.83866203052257 -18.013236966057903 -0.0000050638975538541165 1.0896421112505268 -0.000006792200065149383 24.43995215530233 -41.695406306398645 -26.119906046298073 -167.2746979059085 57.95467777402086 -168.7571503479754 -12.542187134480907 31.631397647847 -21.98297356946942 -0.00000423544437063055 2.2221614593697128 0.00000394017758036584
0.7338493466377258 -5.227876346635181 5.501769065856934 -23.18123872628804 20.25584015795181 3.042606062498702 -1.708203987107696 19.17303130035506 1.1670832369507613 -1.0801637359724485 7.319842859096088 0.8284783996153834 0 0 0 -0.37914861499236713 5.7212104820441425 0.5593401586099744 -12.364555231171218 31.164640373997013 20.306317210795356 0 0 0 0 0 0 -11.957211369529537 0.06015582827961389 -16.544995146095168 -24.09635862878368 11.658594446234552 -65.48525963032263 -79.20135722512492 0.6014876981750646 0.7270488946900274 -37.36002422876937 34.87590699767281 -23.969751821448895 -2.4831306135770896 -0.4650390691261722 -6.149809715038287 2.6355937830518834 0.7294678486459693 -30.938154798613574 0.9216683302001468 0.0835482242171166 -10.36029958724519 14.010120053837905 1.4622025395463867 -6.433918591110883 1.8946613915731667 0.3630420047220377 -21.693734557650664 1.893732485949678 0.36268141152721617 -21.682733422060682 -0.6688764662130069 -0.6707305044884198 -11.868723345216223 2.2500654965984728 0.5202525195009281 -26.036973630494945 0.8265727715052796 0.06707458072387018 -9.281699849182466 4.901373115385735 0.5181837943744456 -12.977828235231094 2.053357826061284 0.42926200844262336 -23.6154535580819 1.7018865099881633 0.29080279566214756 -19.39318353803432 -7.358060624807098 -2.319453236145415 5.674535003414183 12.482596620743907 5.7309146561352415 3.3787122507838014 -8.228199292273821 -10.281429201691632 14.425076745988177 13.82221061572938 0.06136202435701238 15.309761584851172 18.815495511981922 15.55095303215186 57.6756707224837 80.82266320924525 0.6220773566792915 -0.7306468513084564 45.01665016885857 44.981938888475 41.3797234290954 -3.894956445942519 0.05459149582048653 0.1574260318906151 -1.5275756895837946 0.3095904227471757 22.912556181638653 -2.0157251729665506 0.5573620451704788 30.910166840680116 -4.451543879662029 -0.0868810667339688 -3.4713515660852208 -1.07984482253342 0.15153313941520932 15.975910684338793 -1.0077700358516493 0.13164895718239192 14.883917321658323 -3.0479462735191087 0.07459829998424074 2.120700058591314 -1.1023033859137186 0.15803214148940514 16.317001646600573 -0.6344997710710629 0.05163370914370401 9.307117168224076 -3.6351245225520223 0.045911856163305 -0.16120053489840178 -1.569370835028467 0.3275576732471407 23.576865842298243 -0.13747797700332662 0.002418500199829288 2.008163822435529 -1.91246760015781 -1.5910466708108293 -20.933389349883218 -15.600307036157336 7.525285998267954 -6.383465350080434 1.9441724070045352 -8.408531944565778 -15.078225191952704 -6.4167255536213785 -50.50166276960973 1.785675222844513 -171.58207670434314 55.074197664283275 -172.70025942069054 -6.529734081610749 40.16667956070321 -18.828753004507707 0.00000312177411478799 1.082626353159791 -0.000004374423222166159 24.593254431712925 -40.93795445546139 -25.989964174229296 -166.2731530239396 59.754841525984425 -167.9939599545348 -13.037838287498001 32.607103128909905 -21.363088765720928 -0.000005446127242846403 2.2642145035704235 0.0000028290599697117187
0.7570216655731201 -5.203958194779712 5.559593677520752 -23.902104634627896 20.232373431285634 2.8357966239846237 -2.052947741330072 19.190725438339843 1.0504647428954257 -1.2597571821165408 7.255295245992459 0.7971367654104073 0 0 0 -0.3124560042719501 5.472725418862519 0.615765527380497 -11.931864301718319 29.73435373749677 21.597617775773177 0 0 0 0 0 0 -12.225198996714264 0.046296201170893996 -16.51581385448057 -24.204618208820676 12.30521488828216 -65.57132765268733 -78.72874328807042 0.5955001771027646 0.7258927093986298 -37.38721405006202 34.986248403200655 -21.332976156409934 -2.4536075400866855 -0.4866639271556658 -6.410364951081839 2.6357603642059884 0.7295692424851613 -30.9405949562644 0.9201209996375026 0.0832570270642736 -10.342854702250863 13.991513333664003 1.4162191515161393 -6.213148111958232 1.8756582501568555 0.35549302985571407 -21.465638458106607 1.8754677334199468 0.3554439369262446 -21.463042396609534 -0.6573081919559026 -0.676424661058329 -11.978051491407495 2.2500505664641186 0.5202520925965063 -26.036930880877545 0.8265726114392723 0.06708161102105645 -9.281698163990415 4.892270210472822 0.513227490954363 -12.866363087338742 2.0533049245990793 0.42924010319776873 -23.61470106896352 1.701885976608139 0.29079740614658917 -19.39319272545516 -7.358288725555978 -2.3196367343857727 5.675055597126889 12.483081401224359 5.731197816791803 3.3788645900056142 -8.228288874170573 -10.281442217288815 14.425071703879922 13.66760384400102 0.05962776899090789 15.413612060173518 18.88701056270557 15.16199925983512 57.863378973967215 80.25996754237579 0.6149115371252885 -0.7294388949810587 47.466158793099375 45.36352991661441 44.22852117251506 -3.7735998229713847 0.05427060685177298 0.166896079593633 -1.5362531736134717 0.3132764314736702 23.05030264988837 -2.0157247463236905 0.5573777873669399 30.910127012308216 -4.648552171492048 -0.07924693492615212 -3.0502606455413193 -1.091367312280839 0.1548666838535161 16.150898949300426 -1.0193503452650086 0.13473721154811555 15.058960659359231 -2.9855344281111065 0.07414968157581571 2.318783923412472 -1.1123906367536331 0.1610033653353425 16.470797272780185 -0.634475188756169 0.05164780641975299 9.306662396477948 -3.6604527078679348 0.05397869284073301 0.1769475312100121 -1.5692594706943728 0.3274915313893258 23.5749373185744 -0.15656148757109664 0.0031225747682626466 2.287231374000597 -1.8346126267044347 -1.5367627298609463 -20.618898917941557 -15.600364668228622 7.524806315176477 -6.383514897370257 1.9441931269040795 -8.408556973044229 -15.07822442332564 -6.2914666931178065 -49.96626885711703 1.285121707647415 -171.73784743122857 55.57429165050371 -172.75715403411243 -6.324404763643594 39.84333249349738 -18.468433851523166 -0.000003826612635355035 1.0787718400097586 -0.000005562254956381535 24.874432377647732 -40.381098044037174 -26.118148750462822 -165.72470845756465 60.625615932401494 -167.56273818352415 -12.88206000194003 32.966270737791596 -20.919133268079634 0.000005664383560423719 2.2851187610675296 -0.000007045863262790409
